<?xml version="1.0" encoding="UTF-8" standalone="no"?>
<svg
   xmlns:dc="http://purl.org/dc/elements/1.1/"
   xmlns:cc="http://creativecommons.org/ns#"
   xmlns:rdf="http://www.w3.org/1999/02/22-rdf-syntax-ns#"
   xmlns:svg="http://www.w3.org/2000/svg"
   xmlns="http://www.w3.org/2000/svg"
   xmlns:sodipodi="http://sodipodi.sourceforge.net/DTD/sodipodi-0.dtd"
   xmlns:inkscape="http://www.inkscape.org/namespaces/inkscape"
   width="384"
   viewBox="0 0 384 384"
   height="384"
   version="1.0"
   id="svg23"
   sodipodi:docname="icon.svg"
   inkscape:version="1.0.1 (3bc2e813f5, 2020-09-07)">
  <metadata
     id="metadata27">
    <rdf:RDF>
      <cc:Work
         rdf:about="">
        <dc:format>image/svg+xml</dc:format>
        <dc:type
           rdf:resource="http://purl.org/dc/dcmitype/StillImage" />
      </cc:Work>
    </rdf:RDF>
  </metadata>
  <sodipodi:namedview
     pagecolor="#ffffff"
     bordercolor="#666666"
     borderopacity="1"
     objecttolerance="10"
     gridtolerance="10"
     guidetolerance="10"
     inkscape:pageopacity="0"
     inkscape:pageshadow="2"
     inkscape:window-width="1920"
     inkscape:window-height="1017"
     id="namedview25"
     showgrid="false"
     inkscape:zoom="2.2135417"
     inkscape:cx="192"
     inkscape:cy="192"
     inkscape:window-x="-8"
     inkscape:window-y="-8"
     inkscape:window-maximized="1"
     inkscape:current-layer="svg23" />
  <defs
     id="defs5">
    <clipPath
       id="a">
      <path
         d="M 18.4375 101.746094 L 365.6875 101.746094 L 365.6875 282.496094 L 18.4375 282.496094 Z M 18.4375 101.746094"
         id="path2" />
    </clipPath>
  </defs>
  <path
     fill="#FFF"
     d="M-38.4 -38.4H422.40000000000003V422.40000000000003H-38.4z"
     id="path7" />
  <path
     fill="#FFF"
     d="M-38.4 -38.4H422.40000000000003V422.40000000000003H-38.4z"
     id="path9" />
  <path
     fill="#FFF"
     d="M-38.4 -38.4H422.40000000000003V422.40000000000003H-38.4z"
     id="path11" />
  <path
     fill="#9AA7B2"
     d="M 374.96875 337.8125 C 374.96875 357.855469 357.535156 374.121094 338.9375 374.121094 L 36.753906 374.121094 C 31.527344 374.121094 26.296875 372.957031 21.648438 370.925781 C 27.75 377.316406 36.175781 381.089844 45.472656 381.089844 L 347.65625 381.089844 C 365.960938 381.089844 381.070312 365.988281 381.070312 347.6875 L 381.070312 46.1875 C 381.070312 37.765625 377.875 30.210938 372.933594 24.402344 C 374.386719 28.179688 374.96875 32.246094 374.96875 36.3125 L 374.96875 337.8125"
     id="path13" />
  <path
     fill="#FFF"
     d="M 36.753906 371.214844 L 338.359375 371.214844 C 356.664062 371.214844 371.773438 356.113281 371.773438 337.8125 L 371.773438 36.3125 C 371.773438 18.011719 356.664062 2.910156 338.359375 2.910156 L 36.753906 2.910156 C 18.449219 2.910156 3.339844 18.011719 3.339844 36.3125 L 3.339844 337.8125 C 3.339844 356.402344 18.449219 371.214844 36.753906 371.214844"
     id="path15" />
  <path
     fill="#77838D"
     d="M 369.15625 17.140625 C 362.765625 6.976562 351.433594 0.00390625 338.359375 0.00390625 L 36.753906 0.00390625 C 16.707031 0.00390625 0.4375 16.269531 0.4375 36.3125 L 0.4375 337.8125 C 0.4375 349.722656 6.246094 360.179688 14.964844 366.859375 C 21.355469 377.023438 32.6875 383.996094 45.761719 383.996094 L 347.367188 383.996094 C 367.414062 383.996094 383.6875 367.730469 383.6875 347.6875 L 383.6875 46.1875 C 383.6875 34.277344 377.875 23.820312 369.15625 17.140625 M 3.339844 337.8125 L 3.339844 36.3125 C 3.339844 18.011719 18.449219 2.910156 36.753906 2.910156 L 338.359375 2.910156 C 356.664062 2.910156 371.773438 18.011719 371.773438 36.3125 L 371.773438 337.8125 C 371.773438 356.113281 356.664062 371.214844 338.359375 371.214844 L 36.753906 371.214844 C 18.449219 371.214844 3.339844 356.402344 3.339844 337.8125 M 381.070312 347.6875 C 381.070312 365.988281 365.671875 381.089844 347.367188 381.089844 L 45.761719 381.089844 C 36.464844 381.089844 28.039062 377.316406 21.9375 370.925781 C 26.585938 372.957031 31.527344 374.121094 37.046875 374.121094 L 338.648438 374.121094 C 358.699219 374.121094 374.96875 357.855469 374.96875 337.8125 L 374.96875 36.3125 C 374.96875 32.246094 374.097656 28.179688 372.933594 24.402344 C 377.875 30.210938 381.070312 37.765625 381.070312 46.1875 L 381.070312 347.6875"
     id="path17" />
  <circle
     style="fill:#9bffff;stroke:#000000;stroke-width:15.469;stroke-miterlimit:0;paint-order:fill markers stroke;stroke-dasharray:none;fill-opacity:1;opacity:1"
     id="path852"
     cx="192.22588"
     cy="184.99765"
     r="145.69412" />
  <path
     style="fill:#ffffff;fill-opacity:1;stroke:#000000;stroke-width:6.98835;stroke-miterlimit:0;stroke-dasharray:none;paint-order:fill markers stroke;fill-rule:evenodd"
     d="M 178.44706,322.09159 C 151.29859,319.06939 127.35667,309.21895 105.93882,292.25946 96.10287,284.47097 84.414943,271.61261 77.223174,260.66824 60.452984,235.14749 52.468118,204.31559 54.912111,174.51873 57.638427,141.2798 71.353845,111.43929 94.644706,88.072866 102.13061,80.56268 108.23901,75.532227 116.32941,70.214864 c 18.13421,-11.918587 36.62,-18.826946 58.72941,-21.94787 6.66331,-0.94058 29.01156,-0.804956 35.9153,0.217959 37.52788,5.560445 69.62402,24.717442 92.17113,55.013537 20.63447,27.72612 30.09939,63.82018 25.7547,98.21445 -3.92136,31.04313 -17.39325,58.53379 -39.52574,80.6561 -21.42357,21.4137 -46.87139,34.13492 -78.17421,39.07885 -5.52243,0.8722 -26.92226,1.29278 -32.75294,0.6437 z"
     id="path952" />
  <path
     style="opacity:1;fill:#000000;fill-opacity:1;fill-rule:evenodd;stroke:#000000;stroke-width:6.98835;stroke-miterlimit:0;stroke-dasharray:none;paint-order:fill markers stroke"
     d="m 172.59974,317.57466 c -11.85211,-1.93689 -24.81657,-5.783 -35.03657,-10.39416 C 107.6871,293.70074 83.455063,269.46921 70.105499,239.72427 53.682048,203.13021 54.377309,162.38942 72.041678,126.26824 89.333269,90.909332 121.58212,64.713803 159.62659,55.123576 c 11.74797,-2.961419 14.56592,-3.300623 29.16036,-3.510109 17.98848,-0.258204 25.78732,0.586484 38.67658,4.189041 37.6728,10.529571 68.60162,36.321731 85.31813,71.148492 13.09073,27.27291 16.57242,56.09672 10.39363,86.04568 -4.00736,19.42395 -13.71142,39.64773 -26.8847,56.0292 -5.13316,6.38328 -13.93664,15.17984 -20.26235,20.24642 -17.60021,14.0969 -35.51981,22.41523 -58.72942,27.26237 l -7.68,1.6039 -15.81176,0.15892 c -14.02573,0.14097 -16.42123,0.0593 -21.20732,-0.72283 z"
     id="path958" />
  <text
     xml:space="preserve"
     style="font-style:normal;font-weight:normal;font-size:325.346px;line-height:1.25;font-family:sans-serif;fill:#000000;fill-opacity:1;stroke:none;stroke-width:8.13366"
     x="56.052601"
     y="285.96704"
     id="text962"><tspan
       sodipodi:role="line"
       id="tspan960"
       x="56.052601"
       y="285.96704"
       style="fill:#fffdfd;fill-opacity:1;stroke-width:8.13366">+</tspan></text>
</svg>
