<svg xmlns="http://www.w3.org/2000/svg" width="150" viewBox="0 0 150 150" height="150" version="1.0"><defs><clipPath id="a"><path d="M 20.320312 20.320312 L 129.820312 20.320312 L 129.820312 129.820312 L 20.320312 129.820312 Z M 20.320312 20.320312"/></clipPath></defs><path fill="#9AA7B2" d="M 146.757812 131.953125 C 146.757812 139.785156 139.933594 146.136719 132.65625 146.136719 L 14.386719 146.136719 C 12.339844 146.136719 10.292969 145.683594 8.472656 144.890625 C 10.859375 147.386719 14.15625 148.859375 17.796875 148.859375 L 136.070312 148.859375 C 143.234375 148.859375 149.148438 142.960938 149.148438 135.8125 L 149.148438 18.046875 C 149.148438 14.753906 147.894531 11.804688 145.960938 9.535156 C 146.53125 11.011719 146.757812 12.597656 146.757812 14.1875 L 146.757812 131.953125"/><path fill="#FFF" d="M 14.386719 145.003906 L 132.429688 145.003906 C 139.59375 145.003906 145.507812 139.101562 145.507812 131.953125 L 145.507812 14.1875 C 145.507812 7.039062 139.59375 1.140625 132.429688 1.140625 L 14.386719 1.140625 C 7.222656 1.140625 1.308594 7.039062 1.308594 14.1875 L 1.308594 131.953125 C 1.308594 139.214844 7.222656 145.003906 14.386719 145.003906"/><path fill="#77838D" d="M 144.484375 6.699219 C 141.980469 2.730469 137.546875 0.00390625 132.429688 0.00390625 L 14.386719 0.00390625 C 6.539062 0.00390625 0.171875 6.359375 0.171875 14.1875 L 0.171875 131.953125 C 0.171875 136.605469 2.445312 140.691406 5.855469 143.300781 C 8.359375 147.269531 12.792969 149.996094 17.910156 149.996094 L 135.953125 149.996094 C 143.800781 149.996094 150.171875 143.640625 150.171875 135.8125 L 150.171875 18.046875 C 150.171875 13.394531 147.894531 9.308594 144.484375 6.699219 M 1.308594 131.953125 L 1.308594 14.1875 C 1.308594 7.039062 7.222656 1.140625 14.386719 1.140625 L 132.429688 1.140625 C 139.59375 1.140625 145.507812 7.039062 145.507812 14.1875 L 145.507812 131.953125 C 145.507812 139.101562 139.59375 145.003906 132.429688 145.003906 L 14.386719 145.003906 C 7.222656 145.003906 1.308594 139.214844 1.308594 131.953125 M 149.148438 135.8125 C 149.148438 142.960938 143.121094 148.859375 135.953125 148.859375 L 17.910156 148.859375 C 14.273438 148.859375 10.972656 147.386719 8.585938 144.890625 C 10.40625 145.683594 12.339844 146.136719 14.5 146.136719 L 132.542969 146.136719 C 140.390625 146.136719 146.757812 139.785156 146.757812 131.953125 L 146.757812 14.1875 C 146.757812 12.597656 146.417969 11.011719 145.960938 9.535156 C 147.894531 11.804688 149.148438 14.753906 149.148438 18.046875 L 149.148438 135.8125"/><g clip-path="url(#a)"><path fill="#403C52" d="M 120.695312 20.320312 L 29.445312 20.320312 C 28.847656 20.320312 28.253906 20.378906 27.664062 20.496094 C 27.078125 20.613281 26.507812 20.789062 25.953125 21.015625 C 25.402344 21.246094 24.875 21.527344 24.378906 21.859375 C 23.878906 22.195312 23.417969 22.570312 22.996094 22.996094 C 22.570312 23.417969 22.195312 23.878906 21.859375 24.378906 C 21.527344 24.875 21.246094 25.402344 21.015625 25.953125 C 20.789062 26.507812 20.613281 27.078125 20.496094 27.664062 C 20.378906 28.253906 20.320312 28.847656 20.320312 29.445312 L 20.320312 120.695312 C 20.320312 121.292969 20.378906 121.886719 20.496094 122.472656 C 20.613281 123.0625 20.789062 123.632812 21.015625 124.183594 C 21.246094 124.738281 21.527344 125.265625 21.859375 125.761719 C 22.195312 126.257812 22.570312 126.71875 22.996094 127.144531 C 23.417969 127.566406 23.878906 127.945312 24.378906 128.277344 C 24.875 128.613281 25.402344 128.894531 25.953125 129.121094 C 26.507812 129.351562 27.078125 129.523438 27.664062 129.644531 C 28.253906 129.761719 28.847656 129.820312 29.445312 129.820312 L 120.695312 129.820312 C 121.292969 129.820312 121.886719 129.761719 122.472656 129.644531 C 123.0625 129.523438 123.632812 129.351562 124.183594 129.121094 C 124.738281 128.894531 125.265625 128.613281 125.761719 128.277344 C 126.257812 127.945312 126.71875 127.566406 127.144531 127.144531 C 127.566406 126.71875 127.945312 126.257812 128.277344 125.761719 C 128.613281 125.265625 128.894531 124.738281 129.121094 124.183594 C 129.351562 123.632812 129.523438 123.0625 129.644531 122.472656 C 129.761719 121.886719 129.820312 121.292969 129.820312 120.695312 L 129.820312 29.445312 C 129.820312 28.847656 129.761719 28.253906 129.644531 27.664062 C 129.523438 27.078125 129.351562 26.507812 129.121094 25.953125 C 128.894531 25.402344 128.613281 24.875 128.277344 24.378906 C 127.945312 23.878906 127.566406 23.417969 127.144531 22.996094 C 126.71875 22.570312 126.257812 22.195312 125.761719 21.859375 C 125.265625 21.527344 124.738281 21.246094 124.183594 21.015625 C 123.632812 20.789062 123.0625 20.613281 122.472656 20.496094 C 121.886719 20.378906 121.292969 20.320312 120.695312 20.320312 Z M 126.167969 120.695312 C 126.167969 121.054688 126.132812 121.410156 126.066406 121.761719 C 125.996094 122.117188 125.890625 122.457031 125.753906 122.789062 C 125.617188 123.121094 125.445312 123.4375 125.246094 123.738281 C 125.046875 124.035156 124.820312 124.3125 124.566406 124.566406 C 124.3125 124.820312 124.035156 125.046875 123.738281 125.246094 C 123.4375 125.445312 123.121094 125.617188 122.789062 125.753906 C 122.457031 125.890625 122.117188 125.996094 121.761719 126.066406 C 121.410156 126.132812 121.054688 126.167969 120.695312 126.167969 L 29.445312 126.167969 C 29.085938 126.167969 28.730469 126.132812 28.375 126.066406 C 28.023438 125.996094 27.683594 125.890625 27.347656 125.753906 C 27.015625 125.617188 26.703125 125.445312 26.402344 125.246094 C 26.105469 125.046875 25.828125 124.820312 25.574219 124.566406 C 25.320312 124.3125 25.09375 124.035156 24.890625 123.738281 C 24.691406 123.4375 24.523438 123.121094 24.386719 122.789062 C 24.25 122.457031 24.144531 122.117188 24.074219 121.761719 C 24.003906 121.410156 23.96875 121.054688 23.96875 120.695312 L 23.96875 29.445312 C 23.96875 29.085938 24.003906 28.730469 24.074219 28.375 C 24.144531 28.023438 24.25 27.683594 24.386719 27.347656 C 24.523438 27.015625 24.691406 26.703125 24.890625 26.402344 C 25.09375 26.105469 25.320312 25.828125 25.574219 25.574219 C 25.828125 25.320312 26.105469 25.09375 26.402344 24.890625 C 26.703125 24.691406 27.015625 24.523438 27.347656 24.386719 C 27.683594 24.25 28.023438 24.144531 28.375 24.074219 C 28.730469 24.003906 29.085938 23.96875 29.445312 23.96875 L 120.695312 23.96875 C 121.054688 23.96875 121.410156 24.003906 121.761719 24.074219 C 122.117188 24.144531 122.457031 24.25 122.789062 24.386719 C 123.121094 24.523438 123.4375 24.691406 123.738281 24.890625 C 124.035156 25.09375 124.3125 25.320312 124.566406 25.574219 C 124.820312 25.828125 125.046875 26.105469 125.246094 26.402344 C 125.445312 26.703125 125.617188 27.015625 125.753906 27.347656 C 125.890625 27.683594 125.996094 28.023438 126.066406 28.375 C 126.132812 28.730469 126.167969 29.085938 126.167969 29.445312 Z M 126.167969 120.695312"/></g><path fill="#403C52" d="M 45.871094 64.121094 C 45.152344 64.121094 44.4375 64.191406 43.734375 64.332031 C 43.027344 64.46875 42.34375 64.679688 41.679688 64.953125 C 41.015625 65.226562 40.382812 65.566406 39.785156 65.964844 C 39.1875 66.363281 38.636719 66.820312 38.125 67.328125 C 37.617188 67.835938 37.164062 68.386719 36.765625 68.984375 C 36.367188 69.585938 36.027344 70.214844 35.753906 70.878906 C 35.476562 71.542969 35.269531 72.226562 35.128906 72.933594 C 34.988281 73.640625 34.917969 74.351562 34.917969 75.070312 C 34.917969 75.789062 34.988281 76.5 35.128906 77.207031 C 35.269531 77.910156 35.476562 78.597656 35.753906 79.261719 C 36.027344 79.925781 36.367188 80.554688 36.765625 81.152344 C 37.164062 81.75 37.617188 82.304688 38.125 82.8125 C 38.636719 83.320312 39.1875 83.773438 39.785156 84.175781 C 40.382812 84.574219 41.015625 84.910156 41.679688 85.1875 C 42.34375 85.460938 43.027344 85.667969 43.734375 85.808594 C 44.4375 85.949219 45.152344 86.019531 45.871094 86.019531 C 46.589844 86.019531 47.300781 85.949219 48.007812 85.808594 C 48.710938 85.667969 49.394531 85.460938 50.058594 85.1875 C 50.722656 84.910156 51.355469 84.574219 51.953125 84.175781 C 52.550781 83.773438 53.105469 83.320312 53.613281 82.8125 C 54.121094 82.304688 54.574219 81.75 54.972656 81.152344 C 55.375 80.554688 55.710938 79.925781 55.984375 79.261719 C 56.261719 78.597656 56.46875 77.910156 56.609375 77.207031 C 56.75 76.5 56.820312 75.789062 56.820312 75.070312 C 56.820312 74.351562 56.75 73.640625 56.609375 72.933594 C 56.46875 72.230469 56.257812 71.546875 55.984375 70.882812 C 55.707031 70.21875 55.371094 69.585938 54.972656 68.988281 C 54.570312 68.390625 54.117188 67.839844 53.609375 67.332031 C 53.101562 66.820312 52.546875 66.367188 51.949219 65.96875 C 51.351562 65.570312 50.722656 65.230469 50.058594 64.957031 C 49.394531 64.679688 48.710938 64.472656 48.003906 64.332031 C 47.300781 64.191406 46.589844 64.121094 45.871094 64.121094 Z M 45.871094 82.371094 C 45.390625 82.371094 44.914062 82.324219 44.445312 82.230469 C 43.976562 82.136719 43.519531 81.996094 43.078125 81.8125 C 42.632812 81.628906 42.210938 81.40625 41.8125 81.140625 C 41.414062 80.875 41.046875 80.570312 40.707031 80.230469 C 40.367188 79.894531 40.066406 79.523438 39.800781 79.125 C 39.535156 78.726562 39.308594 78.304688 39.125 77.863281 C 38.941406 77.421875 38.804688 76.964844 38.710938 76.492188 C 38.617188 76.023438 38.570312 75.550781 38.570312 75.070312 C 38.570312 74.589844 38.617188 74.117188 38.710938 73.644531 C 38.804688 73.175781 38.941406 72.71875 39.125 72.277344 C 39.308594 71.832031 39.535156 71.414062 39.800781 71.015625 C 40.066406 70.617188 40.367188 70.246094 40.707031 69.90625 C 41.046875 69.570312 41.414062 69.265625 41.8125 69 C 42.210938 68.734375 42.632812 68.507812 43.078125 68.324219 C 43.519531 68.140625 43.976562 68.003906 44.445312 67.910156 C 44.914062 67.816406 45.390625 67.769531 45.871094 67.769531 C 46.347656 67.769531 46.824219 67.816406 47.292969 67.910156 C 47.765625 68.003906 48.21875 68.140625 48.664062 68.324219 C 49.105469 68.507812 49.527344 68.734375 49.925781 69 C 50.324219 69.265625 50.691406 69.570312 51.03125 69.90625 C 51.371094 70.246094 51.671875 70.617188 51.941406 71.015625 C 52.207031 71.414062 52.429688 71.832031 52.613281 72.277344 C 52.796875 72.71875 52.9375 73.175781 53.03125 73.644531 C 53.121094 74.117188 53.167969 74.589844 53.167969 75.070312 C 53.167969 75.550781 53.121094 76.023438 53.03125 76.492188 C 52.9375 76.964844 52.796875 77.421875 52.613281 77.863281 C 52.429688 78.304688 52.207031 78.726562 51.941406 79.125 C 51.671875 79.523438 51.371094 79.894531 51.03125 80.230469 C 50.691406 80.570312 50.324219 80.875 49.925781 81.140625 C 49.527344 81.40625 49.105469 81.628906 48.664062 81.8125 C 48.21875 81.996094 47.765625 82.136719 47.292969 82.230469 C 46.824219 82.324219 46.347656 82.371094 45.871094 82.371094 Z M 45.871094 82.371094"/><path fill="#403C52" d="M 45.871094 34.917969 C 45.152344 34.917969 44.4375 34.988281 43.734375 35.128906 C 43.027344 35.269531 42.34375 35.476562 41.679688 35.753906 C 41.015625 36.027344 40.382812 36.367188 39.785156 36.765625 C 39.1875 37.164062 38.636719 37.617188 38.125 38.125 C 37.617188 38.636719 37.164062 39.1875 36.765625 39.785156 C 36.367188 40.382812 36.027344 41.015625 35.753906 41.679688 C 35.476562 42.34375 35.269531 43.027344 35.128906 43.734375 C 34.988281 44.4375 34.917969 45.152344 34.917969 45.871094 C 34.917969 46.589844 34.988281 47.300781 35.128906 48.007812 C 35.269531 48.710938 35.476562 49.394531 35.753906 50.058594 C 36.027344 50.722656 36.367188 51.355469 36.765625 51.953125 C 37.164062 52.550781 37.617188 53.105469 38.125 53.613281 C 38.636719 54.121094 39.1875 54.574219 39.785156 54.972656 C 40.382812 55.375 41.015625 55.710938 41.679688 55.984375 C 42.34375 56.261719 43.027344 56.46875 43.734375 56.609375 C 44.4375 56.75 45.152344 56.820312 45.871094 56.820312 C 46.589844 56.820312 47.300781 56.75 48.007812 56.609375 C 48.710938 56.46875 49.394531 56.261719 50.058594 55.984375 C 50.722656 55.710938 51.355469 55.375 51.953125 54.972656 C 52.550781 54.574219 53.105469 54.121094 53.613281 53.613281 C 54.121094 53.105469 54.574219 52.550781 54.972656 51.953125 C 55.375 51.355469 55.710938 50.722656 55.984375 50.058594 C 56.261719 49.394531 56.46875 48.710938 56.609375 48.007812 C 56.75 47.300781 56.820312 46.589844 56.820312 45.871094 C 56.820312 45.152344 56.75 44.4375 56.609375 43.734375 C 56.464844 43.03125 56.257812 42.34375 55.984375 41.679688 C 55.707031 41.015625 55.371094 40.386719 54.972656 39.789062 C 54.570312 39.191406 54.117188 38.636719 53.609375 38.128906 C 53.101562 37.621094 52.546875 37.167969 51.949219 36.769531 C 51.351562 36.367188 50.722656 36.03125 50.058594 35.757812 C 49.394531 35.480469 48.710938 35.273438 48.003906 35.132812 C 47.300781 34.992188 46.589844 34.921875 45.871094 34.917969 Z M 45.871094 53.167969 C 45.390625 53.167969 44.914062 53.121094 44.445312 53.03125 C 43.976562 52.9375 43.519531 52.796875 43.078125 52.613281 C 42.632812 52.429688 42.210938 52.207031 41.8125 51.941406 C 41.414062 51.671875 41.046875 51.371094 40.707031 51.03125 C 40.367188 50.691406 40.066406 50.324219 39.800781 49.925781 C 39.535156 49.527344 39.308594 49.105469 39.125 48.664062 C 38.941406 48.21875 38.804688 47.765625 38.710938 47.292969 C 38.617188 46.824219 38.570312 46.347656 38.570312 45.871094 C 38.570312 45.390625 38.617188 44.914062 38.710938 44.445312 C 38.804688 43.976562 38.941406 43.519531 39.125 43.078125 C 39.308594 42.632812 39.535156 42.210938 39.800781 41.8125 C 40.066406 41.414062 40.367188 41.046875 40.707031 40.707031 C 41.046875 40.367188 41.414062 40.066406 41.8125 39.800781 C 42.210938 39.535156 42.632812 39.308594 43.078125 39.125 C 43.519531 38.941406 43.976562 38.804688 44.445312 38.710938 C 44.914062 38.617188 45.390625 38.570312 45.871094 38.570312 C 46.347656 38.570312 46.824219 38.617188 47.292969 38.710938 C 47.765625 38.804688 48.21875 38.941406 48.664062 39.125 C 49.105469 39.308594 49.527344 39.535156 49.925781 39.800781 C 50.324219 40.066406 50.691406 40.367188 51.03125 40.707031 C 51.371094 41.046875 51.671875 41.414062 51.941406 41.8125 C 52.207031 42.210938 52.429688 42.632812 52.613281 43.078125 C 52.796875 43.519531 52.9375 43.976562 53.03125 44.445312 C 53.121094 44.914062 53.167969 45.390625 53.167969 45.871094 C 53.167969 46.347656 53.121094 46.824219 53.03125 47.292969 C 52.9375 47.765625 52.796875 48.21875 52.613281 48.664062 C 52.429688 49.105469 52.207031 49.527344 51.941406 49.925781 C 51.671875 50.324219 51.371094 50.691406 51.03125 51.03125 C 50.691406 51.371094 50.324219 51.671875 49.925781 51.941406 C 49.527344 52.207031 49.105469 52.429688 48.664062 52.613281 C 48.21875 52.796875 47.765625 52.9375 47.292969 53.03125 C 46.824219 53.121094 46.347656 53.167969 45.871094 53.167969 Z M 45.871094 53.167969"/><path fill="#403C52" d="M 45.871094 93.320312 C 45.152344 93.320312 44.4375 93.390625 43.734375 93.53125 C 43.027344 93.671875 42.34375 93.878906 41.679688 94.152344 C 41.015625 94.429688 40.382812 94.765625 39.785156 95.164062 C 39.1875 95.566406 38.636719 96.019531 38.125 96.527344 C 37.617188 97.035156 37.164062 97.589844 36.765625 98.1875 C 36.367188 98.785156 36.027344 99.414062 35.753906 100.078125 C 35.476562 100.742188 35.269531 101.429688 35.128906 102.132812 C 34.988281 102.839844 34.917969 103.550781 34.917969 104.269531 C 34.917969 104.988281 34.988281 105.699219 35.128906 106.40625 C 35.269531 107.109375 35.476562 107.796875 35.753906 108.460938 C 36.027344 109.125 36.367188 109.753906 36.765625 110.351562 C 37.164062 110.949219 37.617188 111.503906 38.125 112.011719 C 38.636719 112.519531 39.1875 112.976562 39.785156 113.375 C 40.382812 113.773438 41.015625 114.109375 41.679688 114.386719 C 42.34375 114.660156 43.027344 114.867188 43.734375 115.007812 C 44.4375 115.148438 45.152344 115.21875 45.871094 115.21875 C 46.589844 115.21875 47.300781 115.148438 48.007812 115.007812 C 48.710938 114.867188 49.394531 114.660156 50.058594 114.386719 C 50.722656 114.109375 51.355469 113.773438 51.953125 113.375 C 52.550781 112.976562 53.105469 112.519531 53.613281 112.011719 C 54.121094 111.503906 54.574219 110.949219 54.972656 110.351562 C 55.375 109.753906 55.710938 109.125 55.984375 108.460938 C 56.261719 107.796875 56.46875 107.109375 56.609375 106.40625 C 56.75 105.699219 56.820312 104.988281 56.820312 104.269531 C 56.820312 103.550781 56.75 102.839844 56.609375 102.132812 C 56.464844 101.429688 56.257812 100.746094 55.984375 100.082031 C 55.707031 99.417969 55.371094 98.785156 54.972656 98.1875 C 54.570312 97.589844 54.117188 97.039062 53.609375 96.53125 C 53.101562 96.023438 52.546875 95.566406 51.949219 95.167969 C 51.351562 94.769531 50.722656 94.429688 50.058594 94.15625 C 49.394531 93.878906 48.710938 93.671875 48.003906 93.53125 C 47.300781 93.390625 46.589844 93.320312 45.871094 93.320312 Z M 45.871094 111.570312 C 45.390625 111.570312 44.914062 111.523438 44.445312 111.429688 C 43.976562 111.335938 43.519531 111.199219 43.078125 111.015625 C 42.632812 110.832031 42.210938 110.605469 41.8125 110.339844 C 41.414062 110.074219 41.046875 109.769531 40.707031 109.429688 C 40.367188 109.09375 40.066406 108.722656 39.800781 108.324219 C 39.535156 107.925781 39.308594 107.507812 39.125 107.0625 C 38.941406 106.621094 38.804688 106.164062 38.710938 105.695312 C 38.617188 105.222656 38.570312 104.75 38.570312 104.269531 C 38.570312 103.789062 38.617188 103.316406 38.710938 102.84375 C 38.804688 102.375 38.941406 101.917969 39.125 101.476562 C 39.308594 101.035156 39.535156 100.613281 39.800781 100.214844 C 40.066406 99.816406 40.367188 99.445312 40.707031 99.109375 C 41.046875 98.769531 41.414062 98.464844 41.8125 98.199219 C 42.210938 97.933594 42.632812 97.707031 43.078125 97.527344 C 43.519531 97.34375 43.976562 97.203125 44.445312 97.109375 C 44.914062 97.015625 45.390625 96.96875 45.871094 96.96875 C 46.347656 96.96875 46.824219 97.015625 47.292969 97.109375 C 47.765625 97.203125 48.21875 97.34375 48.664062 97.527344 C 49.105469 97.707031 49.527344 97.933594 49.925781 98.199219 C 50.324219 98.464844 50.691406 98.769531 51.03125 99.109375 C 51.371094 99.445312 51.671875 99.816406 51.941406 100.214844 C 52.207031 100.613281 52.429688 101.035156 52.613281 101.476562 C 52.796875 101.917969 52.9375 102.375 53.03125 102.84375 C 53.121094 103.316406 53.167969 103.789062 53.167969 104.269531 C 53.167969 104.75 53.121094 105.222656 53.03125 105.695312 C 52.9375 106.164062 52.796875 106.621094 52.613281 107.0625 C 52.429688 107.507812 52.207031 107.925781 51.941406 108.324219 C 51.671875 108.722656 51.371094 109.09375 51.03125 109.429688 C 50.691406 109.769531 50.324219 110.074219 49.925781 110.339844 C 49.527344 110.605469 49.105469 110.832031 48.664062 111.015625 C 48.21875 111.199219 47.765625 111.335938 47.292969 111.429688 C 46.824219 111.523438 46.347656 111.570312 45.871094 111.570312 Z M 45.871094 111.570312"/><path fill="#403C52" d="M 113.394531 53.167969 L 65.945312 53.167969 C 65.703125 53.167969 65.46875 53.214844 65.246094 53.308594 C 65.023438 53.402344 64.824219 53.53125 64.652344 53.703125 C 64.484375 53.875 64.351562 54.074219 64.257812 54.296875 C 64.167969 54.519531 64.121094 54.753906 64.121094 54.996094 C 64.121094 55.238281 64.167969 55.46875 64.257812 55.691406 C 64.351562 55.917969 64.484375 56.113281 64.652344 56.285156 C 64.824219 56.457031 65.023438 56.589844 65.246094 56.679688 C 65.46875 56.773438 65.703125 56.820312 65.945312 56.820312 L 113.394531 56.820312 C 113.636719 56.820312 113.871094 56.773438 114.09375 56.679688 C 114.316406 56.589844 114.515625 56.457031 114.683594 56.285156 C 114.855469 56.113281 114.988281 55.917969 115.082031 55.691406 C 115.171875 55.46875 115.21875 55.238281 115.21875 54.996094 C 115.21875 54.753906 115.171875 54.519531 115.082031 54.296875 C 114.988281 54.074219 114.855469 53.875 114.683594 53.703125 C 114.515625 53.53125 114.316406 53.402344 114.09375 53.308594 C 113.871094 53.214844 113.636719 53.167969 113.394531 53.167969 Z M 113.394531 53.167969"/><path fill="#403C52" d="M 113.394531 42.21875 L 65.945312 42.21875 C 65.703125 42.21875 65.46875 42.265625 65.246094 42.359375 C 65.023438 42.453125 64.824219 42.582031 64.652344 42.753906 C 64.484375 42.925781 64.351562 43.121094 64.257812 43.347656 C 64.167969 43.570312 64.121094 43.804688 64.121094 44.042969 C 64.121094 44.285156 64.167969 44.519531 64.257812 44.742188 C 64.351562 44.964844 64.484375 45.164062 64.652344 45.335938 C 64.824219 45.507812 65.023438 45.636719 65.246094 45.730469 C 65.46875 45.824219 65.703125 45.871094 65.945312 45.871094 L 113.394531 45.871094 C 113.636719 45.871094 113.871094 45.824219 114.09375 45.730469 C 114.316406 45.636719 114.515625 45.507812 114.683594 45.335938 C 114.855469 45.164062 114.988281 44.964844 115.082031 44.742188 C 115.171875 44.519531 115.21875 44.285156 115.21875 44.042969 C 115.21875 43.804688 115.171875 43.570312 115.082031 43.347656 C 114.988281 43.121094 114.855469 42.925781 114.683594 42.753906 C 114.515625 42.582031 114.316406 42.453125 114.09375 42.359375 C 113.871094 42.265625 113.636719 42.21875 113.394531 42.21875 Z M 113.394531 42.21875"/><path fill="#403C52" d="M 113.394531 82.371094 L 65.945312 82.371094 C 65.703125 82.371094 65.46875 82.417969 65.246094 82.507812 C 65.023438 82.601562 64.824219 82.734375 64.652344 82.902344 C 64.484375 83.074219 64.351562 83.273438 64.257812 83.496094 C 64.167969 83.71875 64.121094 83.953125 64.121094 84.195312 C 64.121094 84.4375 64.167969 84.667969 64.257812 84.894531 C 64.351562 85.117188 64.484375 85.3125 64.652344 85.484375 C 64.824219 85.65625 65.023438 85.789062 65.246094 85.878906 C 65.46875 85.972656 65.703125 86.019531 65.945312 86.019531 L 113.394531 86.019531 C 113.636719 86.019531 113.871094 85.972656 114.09375 85.878906 C 114.316406 85.789062 114.515625 85.65625 114.683594 85.484375 C 114.855469 85.3125 114.988281 85.117188 115.082031 84.894531 C 115.171875 84.667969 115.21875 84.4375 115.21875 84.195312 C 115.21875 83.953125 115.171875 83.71875 115.082031 83.496094 C 114.988281 83.273438 114.855469 83.074219 114.683594 82.902344 C 114.515625 82.734375 114.316406 82.601562 114.09375 82.507812 C 113.871094 82.417969 113.636719 82.371094 113.394531 82.371094 Z M 113.394531 82.371094"/><path fill="#403C52" d="M 113.394531 71.417969 L 65.945312 71.417969 C 65.703125 71.417969 65.46875 71.464844 65.246094 71.558594 C 65.023438 71.652344 64.824219 71.78125 64.652344 71.953125 C 64.484375 72.125 64.351562 72.324219 64.257812 72.546875 C 64.167969 72.769531 64.121094 73.003906 64.121094 73.246094 C 64.121094 73.488281 64.167969 73.71875 64.257812 73.941406 C 64.351562 74.167969 64.484375 74.363281 64.652344 74.535156 C 64.824219 74.707031 65.023438 74.839844 65.246094 74.929688 C 65.46875 75.023438 65.703125 75.070312 65.945312 75.070312 L 113.394531 75.070312 C 113.636719 75.070312 113.871094 75.023438 114.09375 74.929688 C 114.316406 74.839844 114.515625 74.707031 114.683594 74.535156 C 114.855469 74.363281 114.988281 74.167969 115.082031 73.941406 C 115.171875 73.71875 115.21875 73.488281 115.21875 73.246094 C 115.21875 73.003906 115.171875 72.769531 115.082031 72.546875 C 114.988281 72.324219 114.855469 72.125 114.683594 71.953125 C 114.515625 71.78125 114.316406 71.652344 114.09375 71.558594 C 113.871094 71.464844 113.636719 71.417969 113.394531 71.417969 Z M 113.394531 71.417969"/><path fill="#403C52" d="M 113.394531 111.570312 L 65.945312 111.570312 C 65.703125 111.570312 65.46875 111.617188 65.246094 111.707031 C 65.023438 111.800781 64.824219 111.933594 64.652344 112.105469 C 64.484375 112.277344 64.351562 112.472656 64.257812 112.695312 C 64.167969 112.921875 64.121094 113.152344 64.121094 113.394531 C 64.121094 113.636719 64.167969 113.871094 64.257812 114.09375 C 64.351562 114.316406 64.484375 114.515625 64.652344 114.683594 C 64.824219 114.855469 65.023438 114.988281 65.246094 115.082031 C 65.46875 115.171875 65.703125 115.21875 65.945312 115.21875 L 113.394531 115.21875 C 113.636719 115.21875 113.871094 115.171875 114.09375 115.082031 C 114.316406 114.988281 114.515625 114.855469 114.683594 114.683594 C 114.855469 114.515625 114.988281 114.316406 115.082031 114.09375 C 115.171875 113.871094 115.21875 113.636719 115.21875 113.394531 C 115.21875 113.152344 115.171875 112.921875 115.082031 112.695312 C 114.988281 112.472656 114.855469 112.277344 114.683594 112.105469 C 114.515625 111.933594 114.316406 111.800781 114.09375 111.707031 C 113.871094 111.617188 113.636719 111.570312 113.394531 111.570312 Z M 113.394531 111.570312"/><path fill="#403C52" d="M 113.394531 100.621094 L 65.945312 100.621094 C 65.703125 100.621094 65.46875 100.667969 65.246094 100.757812 C 65.023438 100.851562 64.824219 100.984375 64.652344 101.152344 C 64.484375 101.324219 64.351562 101.523438 64.257812 101.746094 C 64.167969 101.96875 64.121094 102.203125 64.121094 102.445312 C 64.121094 102.6875 64.167969 102.917969 64.257812 103.144531 C 64.351562 103.367188 64.484375 103.5625 64.652344 103.734375 C 64.824219 103.90625 65.023438 104.039062 65.246094 104.128906 C 65.46875 104.222656 65.703125 104.269531 65.945312 104.269531 L 113.394531 104.269531 C 113.636719 104.269531 113.871094 104.222656 114.09375 104.128906 C 114.316406 104.039062 114.515625 103.90625 114.683594 103.734375 C 114.855469 103.5625 114.988281 103.367188 115.082031 103.144531 C 115.171875 102.917969 115.21875 102.6875 115.21875 102.445312 C 115.21875 102.203125 115.171875 101.96875 115.082031 101.746094 C 114.988281 101.523438 114.855469 101.324219 114.683594 101.152344 C 114.515625 100.984375 114.316406 100.851562 114.09375 100.757812 C 113.871094 100.667969 113.636719 100.621094 113.394531 100.621094 Z M 113.394531 100.621094"/></svg>